<?xml version="1.0" encoding="UTF-8" standalone="no"?>
<svg
   xml:space="preserve"
   sodipodi:docname="kv2nhs54xuyb0x68s-DB_Illustration.svg"
   id="svg138"
   version="1.1"
   fill="none"
   viewBox="0 0 500 500"
   height="500"
   width="500"
   inkscape:version="1.2-beta (1b65182ce9, 2022-04-05)"
   xmlns:inkscape="http://www.inkscape.org/namespaces/inkscape"
   xmlns:sodipodi="http://sodipodi.sourceforge.net/DTD/sodipodi-0.dtd"
   xmlns="http://www.w3.org/2000/svg"
   xmlns:svg="http://www.w3.org/2000/svg"><defs
     id="defs142" /><sodipodi:namedview
     id="namedview140"
     pagecolor="#ffffff"
     bordercolor="#000000"
     borderopacity="0.25"
     inkscape:pageshadow="2"
     inkscape:pageopacity="0.0"
     inkscape:pagecheckerboard="0"
     inkscape:deskcolor="#d1d1d1"
     showgrid="false"
     inkscape:zoom="1.4142136"
     inkscape:cx="339.0577"
     inkscape:cy="239.00209"
     inkscape:window-width="2560"
     inkscape:window-height="1417"
     inkscape:window-x="-8"
     inkscape:window-y="-8"
     inkscape:window-maximized="1"
     inkscape:current-layer="layer1" /><g
     inkscape:groupmode="layer"
     id="layer2"
     inkscape:label="back"
     sodipodi:insensitive="true"><path
       d="m 171.045,79.876189 c 0.68425,12.80021 -2.95497,25.305981 -10.11705,34.765261 -7.16201,9.46023 -17.25989,15.09925 -28.07228,15.67793 l 0.0188,0.35149 c -10.81361,0.57873 -20.91201,6.21969 -28.07391,15.68085 -7.161894,9.46118 -10.80054,21.96721 -10.115394,34.76918 l 7.210404,96.77136 c 0.33859,6.33849 1.72852,12.558 4.09038,18.30455 2.36188,5.74658 5.64943,10.90676 9.675,15.18655 4.02552,4.27885 8.71019,7.59409 13.78649,9.75484 5.07634,2.1617 10.44479,3.12575 15.79905,2.83919 l 0.009,0.17623 c 10.81334,-0.57872 21.45625,3.95121 29.58714,12.59395 8.13085,8.64272 13.08332,20.68992 13.76842,33.49092 0.68605,12.80003 5.63985,24.84618 13.76982,33.48706 8.13082,8.64178 18.77288,13.17083 29.58543,12.59215 l 117.61274,-6.2945 c 21.42723,-1.34536 41.3833,-12.6628 55.51907,-31.48673 14.13577,-18.82393 21.30573,-43.62786 19.94746,-69.00724 -1.35828,-25.3794 -11.13466,-49.27637 -27.1988,-66.48403 -16.06409,-17.2067 -37.11415,-26.33053 -58.56258,-25.38121 l -37.9869,1.3337 c -5.35426,0.28656 -10.72252,-0.67846 -15.79921,-2.83919 -5.07669,-2.16073 -9.76168,-5.47596 -13.78793,-9.75476 -4.02549,-4.27979 -7.3139,-9.43993 -9.6762,-15.18647 -2.36227,-5.74655 -3.75299,-11.96601 -4.09221,-18.30447 l -5.11122,-95.502931 c -0.68505,-12.80026 -5.63666,-24.846452 -13.76672,-33.488926 -8.12927,-8.642531 -18.77143,-13.173558 -29.58406,-12.596401 -22.51222,1.228392 -39.86188,21.894147 -38.4352,48.551647 z"
       fill="#00684a"
       id="path2"
       style="fill:#00684a;fill-opacity:0.698198;stroke-width:0.872039" /><g
       id="g3875"
       transform="translate(33,-29.698485)"><g
         id="g6160"
         transform="matrix(3.0295884,0,0,3.0295884,851.74679,154.09306)"><g
           id="g5701"
           transform="translate(-9.3360112,6.5352078)"><g
             id="g1964"
             transform="translate(-10.606601,-149.81825)"><path
               id="path6087"
               style="fill:#ef4136;stroke-width:0.68979"
               d="m -252.3221,166.60094 h 12.80448 v 27.7008 h -12.80448 z" /><path
               id="path6084"
               style="fill:#ef4136;stroke-width:0.838691"
               d="m -233.14183,175.70494 h 12.80447 v 40.9508 h -12.80447 z" /><path
               id="path6081"
               style="fill:#ef4136;stroke-width:0.553344"
               d="m -214.26683,212.51744 h 12.80447 v 17.8258 h -12.80447 z" /><path
               id="path6078"
               style="fill:#3ab54a;stroke-width:0.690568"
               d="m -195.39183,207.51744 h 12.80447 v 27.7633 h -12.80447 z" /><path
               id="path6075"
               style="fill:#3ab54a;stroke-width:0.568653"
               d="m -176.39183,196.07994 h 12.80447 v 18.8258 h -12.80447 z" /><path
               id="path6072"
               style="fill:#3ab54a;stroke-width:0.765057"
               d="m -157.39183,173.39244 h 12.80447 v 34.0758 h -12.80447 z" /><path
               id="path6069"
               style="fill:#3ab54a;stroke-width:1.03675"
               d="m -138.51683,131.70494 h 12.80447 v 62.5758 h -12.80447 z" /></g><g
             id="g3924"
             transform="translate(-10.69499,-149.46469)"><path
               id="path6066"
               style="fill:#000000;stroke-width:1.15012"
               d="m -248.61432,153.00024 h 0.7955 v 11.8379 h -0.7955 z" /><path
               id="path6063"
               style="fill:#000000;stroke-width:2.10712"
               d="m -255.00494,164.67212 h 1.138 v 27.77539 h -1.138 z" /><path
               id="path6060"
               style="fill:#000000;stroke-width:2.10811"
               d="m -242.53273,164.51447 h 1.138 v 27.8016 h -1.138 z" /><path
               id="path6057"
               style="fill:#000000;stroke-width:1.47498"
               transform="matrix(0.01618262,0.99986905,-0.99998769,0.00496091,0,0)"
               d="m 162.59174,244.04677 h 1.1381 v 13.60847 h -1.1381 z" /><path
               id="path6054"
               style="fill:#000000;stroke-width:1.47498"
               transform="matrix(0.01618262,0.99986905,-0.99998769,0.00496091,0,0)"
               d="m 190.03064,244.49081 h 1.1381 v 13.60848 h -1.1381 z" /><path
               id="path6051"
               style="fill:#000000;stroke-width:1.11622"
               d="m -248.57947,192.13957 h 0.7955 v 11.15039 h -0.7955 z" /><path
               id="path6048"
               style="fill:#000000;stroke-width:1.15012"
               d="m -248.61432,153.00024 h 0.7955 v 11.8379 h -0.7955 z" /><path
               id="path6045"
               style="fill:#000000;stroke-width:2.10712"
               d="m -255.00494,164.67212 h 1.138 v 27.77539 h -1.138 z" /><path
               id="path6042"
               style="fill:#000000;stroke-width:2.10811"
               d="m -242.53273,164.51447 h 1.138 v 27.8016 h -1.138 z" /><path
               id="path6039"
               style="fill:#000000;stroke-width:1.47498"
               transform="matrix(0.01618262,0.99986905,-0.99998769,0.00496091,0,0)"
               d="m 162.59174,244.04677 h 1.1381 v 13.60847 h -1.1381 z" /><path
               id="path6036"
               style="fill:#000000;stroke-width:1.11622"
               d="m -248.57947,192.13957 h 0.7955 v 11.15039 h -0.7955 z" /><path
               id="path6033"
               style="fill:#000000;stroke-width:1.47498"
               transform="matrix(0.01618262,0.99986905,-0.99998769,0.00496091,0,0)"
               d="m 212.71933,225.95149 h 1.1381 v 13.60848 h -1.1381 z" /><path
               id="path6030"
               style="fill:#000000;stroke-width:1.15012"
               d="m -229.55182,162.18774 h 0.7955 v 11.8379 h -0.7955 z" /><path
               id="path6027"
               style="fill:#000000;stroke-width:2.53338"
               d="m -235.94244,173.85962 h 1.138 l 0.004,40.02476 -1.30988,0.15234 z"
               sodipodi:nodetypes="ccccc" /><path
               id="path6024"
               style="fill:#000000;stroke-width:2.56813"
               d="m -223.47023,173.70197 h 1.138 v 41.25873 h -1.138 z" /><path
               id="path6021"
               style="fill:#000000;stroke-width:1.47498"
               transform="matrix(0.01618262,0.99986905,-0.99998769,0.00496091,0,0)"
               d="m 171.87427,225.13425 h 1.1381 v 13.60847 h -1.1381 z" /><path
               id="path6018"
               style="fill:#000000;stroke-width:1.56711"
               d="m -229.67322,214.73332 h 0.7955 v 21.97797 h -0.7955 z" /><path
               id="path6015"
               style="fill:#000000;stroke-width:1.47498"
               transform="matrix(0.01618262,0.99986905,-0.99998769,0.00496091,0,0)"
               d="m 231.37119,188.30331 h 1.1381 v 13.60848 h -1.1381 z" /><path
               id="path6012"
               style="fill:#000000;stroke-width:1.15012"
               d="m -191.75851,194.05664 h 0.79549 v 11.83789 h -0.79549 z" /><path
               id="path6009"
               style="fill:#000000;stroke-width:2.10712"
               d="m -198.14914,205.72852 h 1.138 v 27.77539 h -1.138 z" /><path
               id="path6006"
               style="fill:#000000;stroke-width:2.10811"
               d="m -185.67693,205.57086 h 1.138 v 27.80161 h -1.138 z" /><path
               id="path6003"
               style="fill:#000000;stroke-width:1.47498"
               transform="matrix(0.01618262,0.99986905,-0.99998769,0.00496091,0,0)"
               d="m 203.93228,187.85927 h 1.1381 v 13.60847 h -1.1381 z" /><path
               id="path6000"
               style="fill:#000000;stroke-width:1.11622"
               d="m -191.72366,233.19597 h 0.79549 v 11.15039 h -0.79549 z" /><path
               id="path5997"
               style="fill:#000000;stroke-width:1.47498"
               transform="matrix(0.01618262,0.99986905,-0.99998769,0.00496091,0,0)"
               d="m 226.52579,207.22862 h 1.1381 v 13.60848 h -1.1381 z" /><path
               id="path5994"
               style="fill:#000000;stroke-width:1.15012"
               d="m -210.67361,198.78542 h 0.79549 v 11.83789 h -0.79549 z" /><path
               id="path5991"
               style="fill:#000000;stroke-width:1.70912"
               d="m -217.06424,210.45729 h 1.138 v 18.27364 l -1.23956,-0.94141 z"
               sodipodi:nodetypes="ccccc" /><path
               id="path5988"
               style="fill:#000000;stroke-width:1.70724"
               d="m -204.59203,210.29964 h 1.138 l -0.10156,17.382 -1.03644,0.85156 z"
               sodipodi:nodetypes="ccccc" /><path
               id="path5985"
               style="fill:#000000;stroke-width:1.47498"
               transform="matrix(0.01618262,0.99986905,-0.99998769,0.00496091,0,0)"
               d="m 208.56746,206.84961 h 1.1381 v 13.60847 h -1.1381 z" /><path
               id="path5982"
               style="fill:#000000;stroke-width:1.5898"
               d="m -210.70505,228.09154 h 0.7955 v 22.61914 h -0.7955 z" /><path
               id="path5979"
               style="fill:#000000;stroke-width:1.47498"
               transform="matrix(0.01618262,0.99986905,-0.99998769,0.00496091,0,0)"
               d="m 211.13701,169.09177 h 1.1381 v 13.60847 h -1.1381 z" /><path
               id="path5976"
               style="fill:#000000;stroke-width:1.15012"
               d="m -172.75502,182.52196 h 0.7955 v 11.83789 h -0.7955 z" /><path
               id="path5973"
               style="fill:#000000;stroke-width:1.70912"
               d="m -179.14564,194.19383 h 1.138 l -0.0276,18.84816 -1.23956,-0.94141 z"
               sodipodi:nodetypes="ccccc" /><path
               id="path5970"
               style="fill:#000000;stroke-width:1.70724"
               d="m -166.67343,194.03618 h 1.138 l -0.11813,17.96757 -1.01987,0.26599 z"
               sodipodi:nodetypes="ccccc" /><path
               id="path5967"
               style="fill:#000000;stroke-width:1.47498"
               transform="matrix(0.01618262,0.99986905,-0.99998769,0.00496091,0,0)"
               d="m 192.4913,168.67038 h 1.13811 v 13.60847 h -1.13811 z" /><path
               id="path5964"
               style="fill:#000000;stroke-width:1.11955"
               d="m -172.78645,212.31421 h 0.79549 v 11.21704 h -0.79549 z" /><path
               id="path5961"
               style="fill:#000000;stroke-width:1.47498"
               transform="matrix(0.01618262,0.99986905,-0.99998769,0.00496091,0,0)"
               d="m 204.03407,150.0502 h 1.13811 v 13.60847 h -1.13811 z" /><path
               id="path5958"
               style="fill:#000000;stroke-width:1.15012"
               d="m -153.94827,159.75209 h 0.79549 v 11.83789 h -0.79549 z" /><path
               id="path5955"
               style="fill:#000000;stroke-width:2.34935"
               d="m -160.33889,171.42396 h 1.138 l 0.004,34.42109 -1.30988,0.13101 z"
               sodipodi:nodetypes="ccccc" /><path
               id="path5952"
               style="fill:#000000;stroke-width:2.35399"
               d="m -147.86668,171.26631 h 1.138 v 34.66498 h -1.138 z" /><path
               id="path5949"
               style="fill:#000000;stroke-width:1.47498"
               transform="matrix(0.01618262,0.99986905,-0.99998769,0.00496091,0,0)"
               d="m 169.81357,149.49641 h 1.1381 v 13.60848 h -1.1381 z" /><path
               id="path5946"
               style="fill:#000000;stroke-width:1.12477"
               d="m -154.00717,205.07892 h 0.79549 v 11.32171 h -0.79549 z" /><path
               id="path5943"
               style="fill:#000000;stroke-width:1.47498"
               transform="matrix(0.01618262,0.99986905,-0.99998769,0.00496091,0,0)"
               d="m 190.61391,130.84038 h 1.1381 v 13.60847 h -1.1381 z" /><path
               id="path5940"
               style="fill:#000000;stroke-width:1.15012"
               d="m -135.04425,117.86572 h 0.79549 v 11.83789 h -0.79549 z" /><path
               id="path5937"
               style="fill:#000000;stroke-width:3.15394"
               d="m -141.48173,129.53759 h 1.18487 l -0.0429,62.03475 -1.05207,0.0877 z"
               sodipodi:nodetypes="ccccc" /><path
               id="path5934"
               style="fill:#000000;stroke-width:3.14916"
               d="m -128.96266,129.37994 h 1.138 l 0.0703,62.03999 h -1.20831 z"
               sodipodi:nodetypes="ccccc" /><path
               id="path5931"
               style="fill:#000000;stroke-width:1.47498"
               transform="matrix(0.01618262,0.99986905,-0.99998769,0.00496091,0,0)"
               d="m 128.01886,129.9158 h 1.1381 v 13.60847 h -1.1381 z" /><path
               id="path5928"
               style="fill:#000000;stroke-width:1.12477"
               d="m -135.01476,191.56522 h 0.7955 v 11.32171 h -0.7955 z" /></g><path
             style="fill:#1a1a1a;fill-opacity:0.315315;stroke-width:0.0441942"
             d="m -264.54632,28.667201 v -13.11839 l 3.74545,-0.02935 c 2.06,-0.01614 4.60559,-0.02936 5.65686,-0.02938 l 1.91139,-2.9e-5 v 0.640815 0.640816 h -4.86135 -4.86136 V 29.27864 41.785591 h -0.7955 -0.79549 z"
             id="path5925" /><path
             style="fill:#1a1a1a;fill-opacity:0.315315;stroke-width:0.0625"
             d="M -245.4375,44.571926 V 24.71875 h 4.02111 c 2.21161,0 4.74286,-0.01857 5.625,-0.04127 l 1.60389,-0.04127 v 0.60377 0.603771 h -4.78125 -4.78125 v 19.25 19.25 l -0.23437,3.12e-4 c -0.12891,1.88e-4 -0.5086,0.01848 -0.84375,0.04068 l -0.60938,0.04036 z"
             id="path5922" /><path
             style="fill:#1a1a1a;fill-opacity:0.315315;stroke-width:0.0625"
             d="m -226.5625,69.728931 v -8.364818 l 2.72901,-0.04143 c 1.50095,-0.02279 4.0322,-0.04143 5.625,-0.04143 h 2.89599 v 0.6875 0.6875 h -4.78125 -4.78125 v 7.71875 7.71875 h -0.84375 -0.84375 z"
             id="path5919" /><path
             style="fill:#1a1a1a;fill-opacity:0.315315;stroke-width:0.0625"
             d="m -207.6875,69.71875 v -13.125 h 3.11476 c 1.71311,0 4.25843,-0.01864 5.65625,-0.04142 l 2.54149,-0.04141 v 0.572664 0.572665 H -201.1875 -206 V 70.25 82.84375 h -0.84375 -0.84375 z"
             id="path5916" /><path
             style="fill:#1a1a1a;fill-opacity:0.315315;stroke-width:0.0625"
             d="m -188.6875,53.822049 v -8.709201 l 0.70313,-0.04051 c 0.38671,-0.02228 2.93203,-0.04064 5.65625,-0.0408 l 4.95312,-2.84e-4 V 45.625 46.21875 H -182.1875 -187 v 8.15625 8.15625 h -0.84375 -0.84375 z"
             id="path5913" /><path
             style="fill:#1a1a1a;fill-opacity:0.315315;stroke-width:0.0625"
             d="M -169.875,38.8125 V 22.28125 h 4.33367 c 2.38352,0 4.92884,-0.01853 5.65625,-0.04119 l 1.32258,-0.04119 v 0.666189 0.666189 H -163.28125 -168 v 15.866096 15.866097 l -0.38417,0.04015 c -0.21129,0.02209 -0.63317,0.04015 -0.9375,0.04015 h -0.55333 z"
             id="path5910" /><path
             style="fill:#1a1a1a;fill-opacity:0.315315;stroke-width:0.0625"
             d="m -150.98921,11.127062 c 0.0147,-16.8598039 0.0394,-30.665298 0.0549,-30.678877 0.0154,-0.01358 2.55232,-0.04339 5.63748,-0.06625 l 5.60937,-0.04156 v 0.751685 0.751686 h -4.71875 -4.71875 V 11.8125 41.78125 h -0.94548 -0.94548 z"
             id="path5907" /><path
             style="fill:#000000;fill-opacity:0.630631;stroke-width:0.0441942"
             d="m -248.54509,32.614951 -0.0151,13.118381 -3.74548,0.02504 c -2.06002,0.01377 -4.60563,0.02406 -5.65689,0.02287 l -1.91139,-0.0022 7.3e-4,-0.640815 7.4e-4,-0.640815 4.86135,0.0056 4.86135,0.0056 0.0144,-12.506949 0.0144,-12.506942 0.7955,9.15e-4 0.79549,9.15e-4 z"
             id="path5904" /><path
             style="fill:#000000;fill-opacity:0.603604;stroke-width:0.0625"
             d="m -229.25006,48.106846 0.0266,19.853158 -4.02111,0.0054 c -2.21161,0.003 -4.74283,0.02493 -5.62494,0.04881 l -1.60383,0.04342 -8.1e-4,-0.603769 -8.1e-4,-0.603771 4.78124,-0.0064 4.78125,-0.0064 -0.0258,-19.249982 -0.0258,-19.249983 0.23437,-6.26e-4 c 0.12891,-3.61e-4 0.50858,-0.01916 0.8437,-0.04181 l 0.60932,-0.04118 z"
             id="path5901" /><path
             style="fill:#000000;fill-opacity:0.630631;stroke-width:0.0625"
             d="m -210.37487,73.48347 -0.037,8.364736 -2.72917,0.02935 c -1.50103,0.01615 -4.03234,0.02358 -5.62513,0.01654 l -2.89596,-0.01282 0.003,-0.687493 0.003,-0.687493 4.7812,0.02116 4.7812,0.02116 0.0342,-7.718674 0.0342,-7.718675 0.84375,0.0037 0.84374,0.0037 z"
             id="path5898" /><path
             style="fill:#000000;fill-opacity:0.59009;stroke-width:0.0625"
             d="m -191.5,73.386391 -0.001,13.125 -3.11476,-2.6e-4 c -1.71311,-1.42e-4 -4.25843,0.01829 -5.65625,0.04095 l -2.5415,0.0412 5e-5,-0.572664 5e-5,-0.572665 4.8125,4.01e-4 4.8125,4e-4 0.001,-12.593751 0.001,-12.59375 0.84375,7e-5 0.84375,7.1e-5 z"
             id="path5895" /><path
             style="fill:#010101;fill-opacity:0.59009;stroke-width:0.0625"
             d="m -172.56314,57.437008 0.0823,8.708812 -0.70272,0.04715 c -0.38648,0.02593 -2.93151,0.06834 -5.65561,0.09425 l -4.95289,0.04709 -0.006,-0.593719 -0.006,-0.593724 4.81229,-0.04548 4.81228,-0.04547 -0.0771,-8.155886 -0.0771,-8.155886 0.84371,-0.008 0.84371,-0.008 z"
             id="path5892" /><path
             style="fill:#000000;fill-opacity:0.558559;stroke-width:0.0625"
             d="m -153.37491,42.368112 -0.0394,16.531204 -4.33366,-0.01032 c -2.38351,-0.0057 -4.92887,0.0068 -5.65633,0.02772 l -1.32267,0.03804 0.001,-0.666188 0.002,-0.666187 4.71874,0.01124 4.71873,0.01123 0.0378,-15.866051 0.0378,-15.866052 0.38427,-0.03923 c 0.21134,-0.02158 0.63326,-0.03864 0.93758,-0.03792 l 0.55334,0.0013 z"
             id="path5889" /><path
             style="fill:#000000;fill-opacity:0.581081;stroke-width:0.0625"
             d="m -134.43289,15.1844 c -0.0222,16.859795 -0.0531,30.665277 -0.0688,30.678849 -0.0153,0.01358 -2.55235,0.04225 -5.63752,0.06374 l -5.60938,0.03907 -1.2e-4,-0.751687 -1.2e-4,-0.751687 4.71874,0.0021 4.71875,0.0021 0.0134,-29.96875 0.0134,-29.968747 0.94547,3.66e-4 0.94548,3.65e-4 z"
             id="path5886" /></g></g></g><rect
       style="fill:#585858;fill-opacity:1;stroke-width:2.22001"
       id="rect7053"
       width="5.6066017"
       height="461.49747"
       x="12.020815"
       y="25.455845" /><rect
       style="fill:#585858;fill-opacity:1;stroke-width:2.22001"
       id="rect7055"
       width="5.6066017"
       height="461.49747"
       x="481.40384"
       y="-474.06583"
       transform="rotate(90.061905)" /><rect
       style="fill:#585858;fill-opacity:1;stroke-width:0.516784"
       id="rect7057"
       width="5.6065984"
       height="25.0079"
       x="455.07071"
       y="-38.817223"
       transform="matrix(-5.8536274e-5,1,-0.99980121,-0.01993862,0,0)" /><rect
       style="fill:#585858;fill-opacity:1;stroke-width:0.456449"
       id="rect7059"
       width="5.6065984"
       height="19.509375"
       x="356.59604"
       y="-32.072193"
       transform="matrix(-4.5659971e-5,1,-0.99967334,-0.02555812,0,0)" /><rect
       style="fill:#585858;fill-opacity:1;stroke-width:0.372781"
       id="rect7061"
       width="5.6065984"
       height="13.012644"
       x="250.46002"
       y="-27.133648"
       transform="matrix(-3.0442523e-5,1,-0.99926558,-0.03831834,0,0)" /><rect
       style="fill:#585858;fill-opacity:1;stroke-width:0.372781"
       id="rect7063"
       width="5.6065984"
       height="13.012644"
       x="148.32095"
       y="-28.570934"
       transform="matrix(-3.0442523e-5,1,-0.99926558,-0.03831834,0,0)" /><rect
       style="fill:#585858;fill-opacity:1;stroke-width:0.632881"
       id="rect7065"
       width="5.6065984"
       height="37.506081"
       x="38.73037"
       y="-51.553394"
       transform="matrix(-8.7800596e-5,1,-0.99991162,-0.01329446,0,0)" /><rect
       style="fill:#585858;fill-opacity:1;stroke-width:0.31944"
       id="rect7119"
       width="5.6061535"
       height="9.5559263"
       x="-186.59383"
       y="-485.85742"
       transform="matrix(-0.99998643,0.00520989,0.01634625,-0.99986639,0,0)" /><rect
       style="fill:#585858;fill-opacity:1;stroke-width:0.31944"
       id="rect7121"
       width="5.6061535"
       height="9.5559263"
       x="-107.336"
       y="-485.44443"
       transform="matrix(-0.99998643,0.00520989,0.01634625,-0.99986639,0,0)" /><rect
       style="fill:#585858;fill-opacity:1;stroke-width:0.31944"
       id="rect7123"
       width="5.6061535"
       height="9.5559263"
       x="-291.86649"
       y="-487.15604"
       transform="matrix(-0.99998643,0.00520989,0.01634625,-0.99986639,0,0)" /><rect
       style="fill:#585858;fill-opacity:1;stroke-width:0.31944"
       id="rect7125"
       width="5.6061535"
       height="9.5559263"
       x="-481.38519"
       y="-488.14355"
       transform="matrix(-0.99998643,0.00520989,0.01634625,-0.99986639,0,0)" /><rect
       style="fill:#585858;fill-opacity:1;stroke-width:0.31944"
       id="rect7127"
       width="5.6061535"
       height="9.5559263"
       x="-382.1254"
       y="-487.62634"
       transform="matrix(-0.99998643,0.00520989,0.01634625,-0.99986639,0,0)" /></g><g
     inkscape:groupmode="layer"
     id="layer1"
     inkscape:label="front"><g
       id="g7207" /><path
       d="M 218.85263,169.20833 H 204.841"
       stroke="#b1ff05"
       stroke-miterlimit="10"
       id="path16"
       style="stroke-width:0.507781" /><path
       d="m 249.61752,182.99691 h 14.01209"
       stroke="#b1ff05"
       stroke-miterlimit="10"
       id="path22"
       style="stroke-width:0.507781" /><path
       d="m 221.74054,106.94134 v 5.80824"
       stroke="#b1ff05"
       stroke-miterlimit="10"
       id="path60"
       style="stroke-width:0.507781" /><path
       d="M 221.74054,80.627749 V 103.83694"
       stroke="#b1ff05"
       stroke-miterlimit="10"
       id="path62"
       style="stroke-width:0.507781" /><g
       id="g7257"
       transform="translate(-3.8890874,23.334524)"><path
         d="m 274.86649,200.30565 v 20.00263 c 0,5.7193 9.64801,10.35849 21.55157,10.35849 11.90403,0 21.55205,-4.63919 21.55205,-10.35849 v -20.00263 c 0,-5.72317 -9.65129,-10.3585 -21.55205,-10.3585 -11.90029,0 -21.55157,4.63533 -21.55157,10.3585 z"
         fill="#00ed64"
         stroke="#231f20"
         stroke-width="0.561123"
         stroke-miterlimit="10"
         id="path78" /><path
         d="m 317.98457,200.30565 v 20.00263 c 0,5.7193 -9.65128,10.35849 -21.55204,10.35849 -11.90076,0 -21.55157,-4.63919 -21.55157,-10.35849 v -20.00263"
         stroke="#231f20"
         stroke-miterlimit="10"
         id="path80"
         style="stroke-width:0.507781" /><path
         d="m 317.98457,210.30503 c 0,5.72316 -9.65128,10.35849 -21.55204,10.35849 -11.90076,0 -21.55157,-4.63533 -21.55157,-10.35849"
         stroke="#231f20"
         stroke-miterlimit="10"
         id="path82"
         style="stroke-width:0.507781" /><path
         d="m 313.77404,194.16204 v 32.28598 c 2.63637,-1.70939 4.19607,-3.84252 4.19607,-6.15355 v -19.98882 c 0.0144,-2.30109 -1.5597,-4.42373 -4.19607,-6.14361 z"
         fill="#001e2b"
         stroke="#001e2b"
         stroke-miterlimit="10"
         id="path84"
         style="stroke-width:0.507781" /><path
         d="m 296.41527,210.66414 c 11.90309,0 21.55204,-4.63754 21.55204,-10.35849 0,-5.72096 -9.64895,-10.3585 -21.55204,-10.3585 -11.90263,0 -21.55158,4.63754 -21.55158,10.3585 0,5.72095 9.64895,10.35849 21.55158,10.35849 z"
         fill="#ffffff"
         stroke="#231f20"
         stroke-miterlimit="10"
         id="path86"
         style="stroke-width:0.507781" /><path
         d="m 274.86649,180.59031 v 20.00207 c 0,5.72317 9.64801,10.35905 21.55157,10.35905 11.90403,0 21.55205,-4.63588 21.55205,-10.35905 v -20.00207 c 0,-5.71986 -9.65129,-10.3585 -21.55205,-10.3585 -11.90029,0 -21.55157,4.63864 -21.55157,10.3585 z"
         fill="#00ed64"
         stroke="#231f20"
         stroke-width="0.561123"
         stroke-miterlimit="10"
         id="path88" /><path
         d="m 317.98457,180.59031 v 20.00263 c 0,5.72261 -9.65128,10.35849 -21.55204,10.35849 -11.90076,0 -21.55157,-4.63588 -21.55157,-10.35849 v -20.00263"
         stroke="#231f20"
         stroke-miterlimit="10"
         id="path90"
         style="stroke-width:0.507781" /><path
         d="m 317.98457,190.59355 c 0,5.7193 -9.65128,10.3585 -21.55204,10.3585 -11.90076,0 -21.55157,-4.6392 -21.55157,-10.3585"
         stroke="#231f20"
         stroke-miterlimit="10"
         id="path92"
         style="stroke-width:0.507781" /><path
         d="m 313.77404,174.46051 v 32.28211 c 2.63637,-1.70938 4.19607,-3.8392 4.19607,-6.15355 v -19.99876 c 0.0144,-2.29778 -1.5597,-4.42041 -4.19607,-6.1298 z"
         fill="#001e2b"
         stroke="#001e2b"
         stroke-miterlimit="10"
         id="path94"
         style="stroke-width:0.507781" /><path
         d="m 296.41527,190.9488 c 11.90309,0 21.55204,-4.63809 21.55204,-10.35849 0,-5.72096 -9.64895,-10.3585 -21.55204,-10.3585 -11.90263,0 -21.55158,4.63754 -21.55158,10.3585 0,5.7204 9.64895,10.35849 21.55158,10.35849 z"
         fill="#ffffff"
         stroke="#231f20"
         stroke-miterlimit="10"
         id="path96"
         style="stroke-width:0.507781" /><path
         d="m 274.86649,160.76558 v 20.00263 c 0,5.72261 9.64801,10.35849 21.55157,10.35849 11.90403,0 21.55205,-4.63588 21.55205,-10.35849 v -20.00263 c 0,-5.7193 -9.65129,-10.3585 -21.55205,-10.3585 -11.90029,0 -21.55157,4.6392 -21.55157,10.3585 z"
         fill="#00ed64"
         stroke="#231f20"
         stroke-width="0.561123"
         stroke-miterlimit="10"
         id="path98" /><path
         d="m 317.98457,160.76558 v 20.00263 c 0,5.72261 -9.65128,10.35849 -21.55204,10.35849 -11.90076,0 -21.55157,-4.63588 -21.55157,-10.35849 v -20.00263"
         stroke="#231f20"
         stroke-miterlimit="10"
         id="path100"
         style="stroke-width:0.507781" /><path
         d="m 317.98457,170.76828 c 0,5.71984 -9.65128,10.35848 -21.55204,10.35848 -11.90076,0 -21.55157,-4.63864 -21.55157,-10.35848"
         stroke="#231f20"
         stroke-miterlimit="10"
         id="path102"
         style="stroke-width:0.507781" /><path
         d="m 313.77404,154.63247 v 32.28542 c 2.63637,-1.70883 4.19607,-3.84252 4.19607,-6.15355 v -19.99876 c 0.0144,-2.29778 -1.5597,-4.42374 -4.19607,-6.13311 z"
         fill="#001e2b"
         stroke="#001e2b"
         stroke-miterlimit="10"
         id="path104"
         style="stroke-width:0.507781" /><path
         d="m 296.41527,171.12739 c 11.90309,0 21.55204,-4.63755 21.55204,-10.3585 0,-5.72096 -9.64895,-10.35849 -21.55204,-10.35849 -11.90263,0 -21.55158,4.63753 -21.55158,10.35849 0,5.72095 9.64895,10.3585 21.55158,10.3585 z"
         fill="#ffffff"
         stroke="#231f20"
         stroke-miterlimit="10"
         id="path106"
         style="stroke-width:0.507781" /><path
         d="m 273.1469,236.70206 v -5.80825"
         stroke="#b1ff05"
         stroke-miterlimit="10"
         id="path64"
         style="stroke-width:0.507781" /></g><path
       d="M 313.45199,237.90954 V 214.70361"
       stroke="#b1ff05"
       stroke-miterlimit="10"
       id="path66"
       style="stroke-width:0.507781" /><path
       d="m 216.63419,307.61277 c 2.90939,0 5.2676,-2.79169 5.2676,-6.23532 0,-3.44417 -2.35821,-6.23587 -5.2676,-6.23587 -2.90893,0 -5.26714,2.7917 -5.26714,6.23587 0,3.44363 2.35821,6.23532 5.26714,6.23532 z"
       fill="#ffffff"
       stroke="#001e2b"
       stroke-miterlimit="10"
       id="path68"
       style="stroke-width:0.507781" /><path
       d="m 213.48679,306.36526 c 0,0 6.61308,-2.71103 7.50821,-8.50601 1.15507,1.78838 1.62597,5.91763 -0.83726,8.1469 -2.46369,2.22872 -4.87791,1.51104 -6.67095,0.35911 z"
       fill="#023430"
       id="path70"
       style="stroke-width:0.507781" /><path
       d="m 310.19253,141.41686 -4.85132,-5.85615 2.33302,-8.83723 4.91805,5.60317 z"
       fill="#023430"
       stroke="#001e2b"
       stroke-miterlimit="10"
       id="path72"
       style="stroke-width:0.507781" /><path
       d="m 310.2098,141.4236 6.80069,-1.54866 2.33348,-8.83724 -6.73723,1.29569 z"
       fill="#ffffff"
       stroke="#001e2b"
       stroke-miterlimit="10"
       id="path74"
       style="stroke-width:0.507781" /><path
       d="m 314.38579,125.52691 -6.71156,1.19651 4.93251,5.61002 6.73723,-1.29568 z"
       fill="#ffffff"
       stroke="#001e2b"
       stroke-miterlimit="10"
       id="path76"
       style="stroke-width:0.507781" /><g
       id="g7224"
       transform="matrix(1.8617832,0,0,1.8617832,-94.733239,-315.11813)"><path
         d="m 152.05386,271.01633 v 20.00263 c 0,5.7193 9.6482,10.35849 21.55185,10.35849 11.90356,0 21.55204,-4.63919 21.55204,-10.35849 v -20.00263 c 0,-5.72317 -9.65128,-10.3585 -21.55204,-10.3585 -11.90076,0 -21.55185,4.63533 -21.55185,10.3585 z"
         fill="#00ed64"
         stroke="#231f20"
         stroke-width="0.561123"
         stroke-miterlimit="10"
         id="path108" /><path
         d="m 195.15448,271.01633 v 20.00263 c 0,5.7193 -9.65081,10.35849 -21.55157,10.35849 -11.90085,0 -21.55199,-4.63919 -21.55199,-10.35849 v -20.00263"
         stroke="#231f20"
         stroke-miterlimit="10"
         id="path110"
         style="stroke-width:0.507781" /><path
         d="m 195.15448,281.01571 c 0,5.72316 -9.65081,10.35849 -21.55157,10.35849 -11.90085,0 -21.55199,-4.63533 -21.55199,-10.35849"
         stroke="#231f20"
         stroke-miterlimit="10"
         id="path112"
         style="stroke-width:0.507781" /><path
         d="m 190.96168,264.87272 v 32.28598 c 2.63637,-1.70939 4.19561,-3.84252 4.19561,-6.15355 v -19.98882 c -0.003,-2.30109 -1.55924,-4.42373 -4.19561,-6.14361 z"
         fill="#001e2b"
         stroke="#001e2b"
         stroke-miterlimit="10"
         id="path114"
         style="stroke-width:0.507781" /><path
         d="m 173.60291,281.37482 c 11.90263,0 21.55157,-4.63754 21.55157,-10.35849 0,-5.72096 -9.64894,-10.3585 -21.55157,-10.3585 -11.90291,0 -21.55199,4.63754 -21.55199,10.3585 0,5.72095 9.64908,10.35849 21.55199,10.35849 z"
         fill="#ffffff"
         stroke="#231f20"
         stroke-miterlimit="10"
         id="path116"
         style="stroke-width:0.507781" /><path
         d="m 152.05386,251.30099 v 20.00207 c 0,5.72317 9.6482,10.35905 21.55185,10.35905 11.90356,0 21.55204,-4.63588 21.55204,-10.35905 v -20.00207 c 0,-5.71986 -9.65128,-10.3585 -21.55204,-10.3585 -11.90076,0 -21.55185,4.63864 -21.55185,10.3585 z"
         fill="#00ed64"
         stroke="#231f20"
         stroke-width="0.561123"
         stroke-miterlimit="10"
         id="path118" /><path
         d="m 195.15448,251.30099 v 20.00263 c 0,5.72261 -9.65081,10.35849 -21.55157,10.35849 -11.90085,0 -21.55199,-4.63588 -21.55199,-10.35849 v -20.00263"
         stroke="#231f20"
         stroke-miterlimit="10"
         id="path120"
         style="stroke-width:0.507781" /><path
         d="m 195.15448,261.30423 c 0,5.7193 -9.65081,10.3585 -21.55157,10.3585 -11.90085,0 -21.55199,-4.6392 -21.55199,-10.3585"
         stroke="#231f20"
         stroke-miterlimit="10"
         id="path122"
         style="stroke-width:0.507781" /><path
         d="m 190.96168,245.17119 v 32.28211 c 2.63637,-1.70938 4.19561,-3.8392 4.19561,-6.15355 v -19.99876 c -0.003,-2.29778 -1.55924,-4.42041 -4.19561,-6.1298 z"
         fill="#001e2b"
         stroke="#001e2b"
         stroke-miterlimit="10"
         id="path124"
         style="stroke-width:0.507781" /><path
         d="m 173.60291,261.65948 c 11.90263,0 21.55157,-4.63809 21.55157,-10.35849 0,-5.72096 -9.64894,-10.3585 -21.55157,-10.3585 -11.90291,0 -21.55199,4.63754 -21.55199,10.3585 0,5.7204 9.64908,10.35849 21.55199,10.35849 z"
         fill="#ffffff"
         stroke="#231f20"
         stroke-miterlimit="10"
         id="path126"
         style="stroke-width:0.507781" /><path
         d="m 152.05386,231.47626 v 20.00263 c 0,5.72261 9.6482,10.35849 21.55185,10.35849 11.90356,0 21.55204,-4.63588 21.55204,-10.35849 v -20.00263 c 0,-5.7193 -9.65128,-10.3585 -21.55204,-10.3585 -11.90076,0 -21.55185,4.6392 -21.55185,10.3585 z"
         fill="#00ed64"
         stroke="#231f20"
         stroke-width="0.561123"
         stroke-miterlimit="10"
         id="path128" /><path
         d="m 195.15448,231.47626 v 20.00263 c 0,5.72261 -9.65081,10.35849 -21.55157,10.35849 -11.90085,0 -21.55199,-4.63588 -21.55199,-10.35849 v -20.00263"
         stroke="#231f20"
         stroke-miterlimit="10"
         id="path130"
         style="stroke-width:0.507781" /><path
         d="m 195.15448,241.47896 c 0,5.71984 -9.65081,10.35848 -21.55157,10.35848 -11.90085,0 -21.55199,-4.63864 -21.55199,-10.35848"
         stroke="#231f20"
         stroke-miterlimit="10"
         id="path132"
         style="stroke-width:0.507781" /><path
         d="m 190.96168,225.34315 v 32.28542 c 2.63637,-1.70883 4.19561,-3.84252 4.19561,-6.15355 v -19.99876 c -0.003,-2.29778 -1.55924,-4.42374 -4.19561,-6.13311 z"
         fill="#001e2b"
         stroke="#001e2b"
         stroke-miterlimit="10"
         id="path134"
         style="stroke-width:0.507781" /><path
         d="m 173.60291,241.83807 c 11.90263,0 21.55157,-4.63755 21.55157,-10.3585 0,-5.72096 -9.64894,-10.35849 -21.55157,-10.35849 -11.90291,0 -21.55199,4.63753 -21.55199,10.35849 0,5.72095 9.64908,10.3585 21.55199,10.3585 z"
         fill="#ffffff"
         stroke="#231f20"
         stroke-miterlimit="10"
         id="path136"
         style="stroke-width:0.507781" /></g></g></svg>
